<svg id="Layer_1" data-name="Layer 1" xmlns="http://www.w3.org/2000/svg" viewBox="0 0 621.7 56.32"><defs><style>.cls-1{fill:#1d1d1b;}</style></defs><title>Effective Altruism text</title><path class="cls-1" d="M33,33.08H15.71V47.71H32.24l0.46-6.12h7.8v14H0V49.43l5.45-1.05V11.64L0,10.58V4.39H40.43v14H32.55L32.1,12.3H15.71V25.17H33v7.91Z"/><path class="cls-1" d="M46.79,49.43l5-1.05V24.75H46.09V17.54h5.66V13.32q0-6.4,3.69-9.86T65.81,0a18.83,18.83,0,0,1,2.65.19q1.35,0.19,3,.54L70.56,8.37l-1.63-.25A14.15,14.15,0,0,0,67.08,8,4.93,4.93,0,0,0,63.3,9.39,5.55,5.55,0,0,0,62,13.32v4.22h7.56v7.21H62V48.38l5,1.05v6.15H46.79V49.43Z"/><path class="cls-1" d="M73.58,49.43l5-1.05V24.75H72.88V17.54h5.66V13.32q0-6.4,3.69-9.86T92.6,0a18.83,18.83,0,0,1,2.65.19q1.35,0.19,3,.54L97.35,8.37l-1.63-.25A14.15,14.15,0,0,0,93.87,8a4.93,4.93,0,0,0-3.78,1.37,5.55,5.55,0,0,0-1.28,3.94v4.22h7.56v7.21H88.8V48.38l5,1.05v6.15H73.58V49.43Z"/><path class="cls-1" d="M117.18,56.32q-8.23,0-13.15-5.27a18.85,18.85,0,0,1-4.92-13.39V36.25q0-8.47,4.66-14a15.46,15.46,0,0,1,12.5-5.45q7.7,0,12,4.64T132.47,34v5.59H109.76l-0.07.21A9.93,9.93,0,0,0,112.2,46a7.84,7.84,0,0,0,6.06,2.43,19.75,19.75,0,0,0,5.66-.69,26,26,0,0,0,4.92-2.16l2.78,6.33a20.21,20.21,0,0,1-6.1,3.13A26,26,0,0,1,117.18,56.32Zm-0.91-31.57a5.34,5.34,0,0,0-4.5,2.18,11.34,11.34,0,0,0-2,5.73l0.11,0.18h12.59V31.92a8.23,8.23,0,0,0-1.53-5.22A5.51,5.51,0,0,0,116.26,24.75Z"/><path class="cls-1" d="M155.18,48.45a6.05,6.05,0,0,0,4.39-1.6,5.67,5.67,0,0,0,1.65-4.27h9.28l0.11,0.21a11.87,11.87,0,0,1-4.32,9.65,16.32,16.32,0,0,1-11.11,3.88q-8.51,0-13.11-5.38t-4.61-13.82V36.07q0-8.4,4.73-13.82t13.48-5.41a23.4,23.4,0,0,1,8.26,1.37A16.32,16.32,0,0,1,170,22.08l0.14,10.16h-8.33l-1.69-5.94a6.48,6.48,0,0,0-1.9-1.11,7,7,0,0,0-2.57-.44q-4.36,0-6.15,3.16a16.42,16.42,0,0,0-1.79,8.16v1.05a17.51,17.51,0,0,0,1.65,8.21Q151,48.45,155.18,48.45Z"/><path class="cls-1" d="M190.41,8.23v9.32h6.68v7.21h-6.68V44.12a4.48,4.48,0,0,0,.91,3.16,3.26,3.26,0,0,0,2.46.95,16.94,16.94,0,0,0,1.85-.09q0.79-.09,1.78-0.3l0.88,7.42a24.64,24.64,0,0,1-3.41.79,23.73,23.73,0,0,1-3.66.26q-5.31,0-8.17-2.92t-2.87-9.25V24.75h-5.59V17.54h5.59V8.23h10.23Z"/><path class="cls-1" d="M201.8,49.43l5-1.05V24.79l-5.48-1.05V17.54H217V48.38l4.92,1.05v6.15H201.8V49.43ZM217,8.44H206.75V0.74H217v7.7Z"/><path class="cls-1" d="M241.45,23.73l-3.59.67,5,17L243.56,45h0.21l0.74-3.59,5-17-3.66-.7V17.54h17.26v6.19l-3.31.53L248.55,55.58h-9.81L227.5,24.26l-3.3-.53V17.54h17.26v6.19Z"/><path class="cls-1" d="M284.1,56.32q-8.23,0-13.15-5.27A18.86,18.86,0,0,1,266,37.65V36.25q0-8.47,4.66-14a15.46,15.46,0,0,1,12.5-5.45q7.7,0,12,4.64T299.39,34v5.59H276.68l-0.07.21A9.93,9.93,0,0,0,279.12,46a7.84,7.84,0,0,0,6.06,2.43,19.75,19.75,0,0,0,5.66-.69,26,26,0,0,0,4.92-2.16l2.78,6.33a20.21,20.21,0,0,1-6.1,3.13A26,26,0,0,1,284.1,56.32Zm-0.91-31.57a5.34,5.34,0,0,0-4.5,2.18,11.35,11.35,0,0,0-2,5.73l0.11,0.18h12.59V31.92a8.23,8.23,0,0,0-1.53-5.22A5.51,5.51,0,0,0,283.18,24.75Z"/><path class="cls-1" d="M321.86,51.15l3.8-.53L343.55,4.39h5.94l17.58,46.23,3.76,0.53v4.43h-14.7V51.15l3.87-.67-3.37-9.42h-20.5l-3.48,9.42,3.87,0.67v4.43H321.86V51.15Zm16.42-15.89h16.24l-7.95-22h-0.21Z"/><path class="cls-1" d="M374.84,5.2V0.74h12.66V50.17l5.73,1v4.43H374.84V51.15l5.73-1v-44Z"/><path class="cls-1" d="M410.56,8.37v9.18h7.21v5.13h-7.21v23.1a5.17,5.17,0,0,0,1.11,3.76,4,4,0,0,0,2.94,1.09,15.14,15.14,0,0,0,2.06-.16q1.14-.16,1.92-0.33l0.95,4.75a8.87,8.87,0,0,1-2.88,1,18.25,18.25,0,0,1-3.8.4,9,9,0,0,1-6.71-2.55q-2.5-2.55-2.5-8V22.68h-6V17.54h6V8.37h6.93Z"/><path class="cls-1" d="M424.83,22V17.54h11.92l0.67,5.52a13.29,13.29,0,0,1,4-4.57,9.27,9.27,0,0,1,5.43-1.65,11.81,11.81,0,0,1,1.67.12,9.31,9.31,0,0,1,1.32.26l-0.91,6.43L445,23.45a7.93,7.93,0,0,0-4.61,1.28,8.3,8.3,0,0,0-2.88,3.6V50.17l5.73,1v4.43H424.83V51.15l5.73-1V23Z"/><path class="cls-1" d="M481.82,50a12.84,12.84,0,0,1-4.62,4.71,12.69,12.69,0,0,1-6.52,1.65q-6.19,0-9.67-4T457.52,40V23l-4.36-1V17.54h11.29V40q0,6.08,1.79,8.37t5.59,2.29a11.39,11.39,0,0,0,6.1-1.49A9.35,9.35,0,0,0,481.57,45V23l-5.1-1V17.54h12V50.17l4.36,1v4.43H482.27Z"/><path class="cls-1" d="M498.34,51.15l5.73-1V23l-5.73-1V17.54H511V50.17l5.73,1v4.43H498.34V51.15ZM511,7.8h-6.93V0.74H511V7.8Z"/><path class="cls-1" d="M551.11,29.5h-5.2l-1.12-4.57A9.37,9.37,0,0,0,541.6,23a12.27,12.27,0,0,0-4.34-.72q-3.69,0-5.48,1.62a5.07,5.07,0,0,0-1.79,3.9,4.35,4.35,0,0,0,1.58,3.55q1.58,1.3,6.43,2.32,7.21,1.55,10.72,4.2A8.47,8.47,0,0,1,552.24,45a9.83,9.83,0,0,1-4.1,8.19q-4.1,3.13-10.71,3.13a27.82,27.82,0,0,1-7.77-1,20.68,20.68,0,0,1-6.15-2.9l0-8.68h5.2l1.3,5.1a7.23,7.23,0,0,0,3.25,1.58,18,18,0,0,0,4.2.49,9.8,9.8,0,0,0,5.78-1.49,4.61,4.61,0,0,0,2.09-3.92,4.72,4.72,0,0,0-1.74-3.76q-1.74-1.48-6.59-2.57-6.93-1.51-10.44-4.11A8.29,8.29,0,0,1,523,28a9.93,9.93,0,0,1,4-7.91,15.61,15.61,0,0,1,10.28-3.27A25,25,0,0,1,545,18a16.2,16.2,0,0,1,5.73,3.13Z"/><path class="cls-1" d="M557.33,51.15l5.73-1V23l-5.73-1V17.54h12l0.46,5a12.45,12.45,0,0,1,4.71-4.18,14.46,14.46,0,0,1,6.68-1.48,11.77,11.77,0,0,1,6.52,1.76,10.64,10.64,0,0,1,4.1,5.27,14.11,14.11,0,0,1,4.75-5.13,12.46,12.46,0,0,1,6.89-1.9,11.43,11.43,0,0,1,9.21,4q3.38,4,3.38,12V50.17l5.73,1v4.43H603.28V51.15l5.73-1V32.77q0-5.62-1.93-8a7,7,0,0,0-5.73-2.34A7.3,7.3,0,0,0,595.53,25,11.08,11.08,0,0,0,593,31.43V50.17l5.73,1v4.43H580.33V51.15l5.73-1V32.77q0-5.34-2-7.82a6.93,6.93,0,0,0-5.75-2.48,9.52,9.52,0,0,0-5.2,1.3A8.4,8.4,0,0,0,570,27.42V50.17l5.73,1v4.43H557.33V51.15Z"/></svg>